<svg xmlns="http://www.w3.org/2000/svg" width="163.84" height="163.84" viewBox="0 0 512 512"><path fill="#FFA500" stroke="#000" d="M212 172c-2.22.48-3.65.62-5.3 2.43-3.67 4.03-3.25 15.72-1.43 20.57l6.17 12c.89 2.84.55 12.46.56 16 .01 2.6-.2 5.55 1.02 7.91 1.4 2.72 3.92 3.8 4.63 7.13.8 3.78-2.68 17.91-6.04 19.93-1.93 1.11-7.97.09-10.61 0 1.41 16.78 10.44 38.46 23.04 49.73 17.53 15.69 47.82 15.47 64.87-.87 6.07-5.82 10.21-12.33 13.83-19.83 3.84-7.94 7.54-20.2 8.26-29.03-2.64.09-8.68 1.11-10.61 0-3.36-2.02-6.84-16.15-6.04-19.93.71-3.33 3.23-4.41 4.63-7.13 1.22-2.36 1.01-5.31 1.02-7.91.01-3.54-.33-13.16.56-16l6.17-12c1.82-4.85 2.24-16.54-1.43-20.57-1.65-1.81-3.08-1.95-5.3-2.43.94-3.3 1.95-14.34 2-18 .07-6.63.05-18.01-2.65-24-4.53-10.05-17.54-11.88-27.35-12-14.03-.16-29-.56-38-13-6.36 1.87-9.67 6.92-13.57 12-11.4 14.82-11.29 26.26-9.6 44 .46 4.79-.28 5.91 1.17 11zm-74 188c2.46 13.05 5.34 24.92 13.04 36 3.36 4.84 6.13 9.27 11.96 11l5.52-10c8.42-17.66 14.45-48.41 14.48-68v-20c0-15.54-.29-35.85-3-51-12.61.28-26.31 6.07-36 14-10.56-22.32-45.38-16.68-62-5.48-5.37 3.62-8.48 6.97-13 11.48 6.28-25.5 2.19-41.35 4.58-58 .6-4.21 1.21-16.79 6.52-17.24 6.22-.54 7.33 5.97 9.39 10.24 3.13 6.49 6.12 9.86 13.51 10 11.21.2 35.78-3.25 37.63-17 .77-5.66-2.92-12.09-5.38-17-1.66-3.3-3.88-8.13-6.58-10.58-3.87-3.53-11.55-3.9-16.67-4.47l-34-4.23c-5.31-.69-14.28-1.8-18.96 1.13-6.72 4.21-13.96 23.46-17.79 31.15-11.09 22.23-22.03 44.94-31.25 68-3.79 9.46-9.88 21.86-10 32-.03 2.68-.24 6.58 1.02 8.96 1.98 3.72 6.23 5.38 9.98 6.7l21 7.29 29 14.19c17.05 7.62 28.25 10.9 46 16 8.58 2.47 22.31 7.25 31 4.86zm305-82c-4.54-4.54-7.6-7.84-13-11.48-16.6-11.21-51.44-16.84-62 5.48-9.69-7.93-23.39-13.72-36-14-2.71 15.15-3 35.46-3 51v20c.03 19.59 6.06 50.34 14.48 68l5.52 10c5.83-1.73 8.6-6.16 11.96-11 7.7-11.08 10.58-22.95 13.04-36 8.69 2.39 22.42-2.39 31-4.86 15.2-4.37 29.5-8.55 44-15l31-15.19 21-7.29c3.75-1.32 8-2.98 9.98-6.7 1.26-2.38 1.05-6.28 1.02-8.96-.12-10.14-6.21-22.54-10-32-9.22-23.06-20.16-45.77-31.25-68-3.83-7.69-11.07-26.94-17.79-31.15-4.68-2.93-13.65-1.82-18.96-1.13l-35 4.33c-5.71.64-12.27.89-16.47 5.29-2.3 2.4-4.27 6.64-5.78 9.66-2.46 4.91-6.15 11.34-5.38 17 1.85 13.75 26.42 17.2 37.63 17 7.39-.14 10.38-3.51 13.51-10 2.06-4.27 3.17-10.78 9.39-10.24 3.38.29 4.01 3.48 4.67 6.24 1.13 4.74 2.37 13.16 2.43 18 .2 17.68-.31 33.49 4 51z"/></svg>